<svg xmlns="http://www.w3.org/2000/svg" width="45" height="45" viewBox="0 0 45 45">
  <path id="icons8-instagram" d="M16.121,3A13.141,13.141,0,0,0,3,16.129v18.75A13.141,13.141,0,0,0,16.129,48h18.75A13.141,13.141,0,0,0,48,34.871V16.121A13.141,13.141,0,0,0,34.871,3Zm22.5,7.5a1.875,1.875,0,1,1-1.875,1.875A1.876,1.876,0,0,1,38.625,10.5ZM25.5,14.25A11.25,11.25,0,1,1,14.25,25.5,11.261,11.261,0,0,1,25.5,14.25Zm0,3.75A7.5,7.5,0,1,0,33,25.5,7.5,7.5,0,0,0,25.5,18Z" transform="translate(-3 -3)" fill="#fff"/>
</svg>
