<svg xmlns="http://www.w3.org/2000/svg" width="55.376" height="45" viewBox="0 0 55.376 45">
  <path id="icons8-twitter" d="M57.375,9.763a22.679,22.679,0,0,1-6.526,1.789,11.38,11.38,0,0,0,4.994-6.285,22.779,22.779,0,0,1-7.216,2.758A11.364,11.364,0,0,0,28.977,15.8a11.487,11.487,0,0,0,.294,2.588A32.252,32.252,0,0,1,5.854,6.513,11.381,11.381,0,0,0,9.37,21.681,11.338,11.338,0,0,1,4.225,20.26V20.4a11.362,11.362,0,0,0,9.113,11.139,11.365,11.365,0,0,1-2.994.4,11.568,11.568,0,0,1-2.136-.2A11.375,11.375,0,0,0,18.82,39.628,22.786,22.786,0,0,1,4.71,44.493,22.826,22.826,0,0,1,2,44.333a32.163,32.163,0,0,0,17.415,5.1c20.9,0,32.321-17.311,32.321-32.324q0-.738-.032-1.47A23.118,23.118,0,0,0,57.375,9.763Z" transform="translate(-1.999 -4.436)" fill="#fff"/>
</svg>
